<?xml version="1.0" encoding="UTF-8"?>
<!DOCTYPE svg  PUBLIC '-//W3C//DTD SVG 1.1//EN'  'http://www.w3.org/Graphics/SVG/1.1/DTD/svg11.dtd'>
<svg width="1112pt" height="952pt" version="1.1" viewBox="0 0 1112 952" xmlns="http://www.w3.org/2000/svg">
<path d="m480.05 236.74c10.97-15.96 27.45-28 45.98-33.64-2.75 2.63-5.72 5.06-8.07 8.08 10.03-1.2 20.42-0.11 29.72 3.97 0.99 8.64 2.05 17.28 2.94 25.93 0.66-0.47 0.98-1.11 0.96-1.94 0.91-7.98 1.66-15.97 2.8-23.91 9.17-4.34 19.67-5.19 29.65-4.03-2.29-3.08-5.37-5.42-8.07-8.12 18.1 5.73 34.6 17.2 45.32 32.98-3.22-1.55-6.18-3.65-9.61-4.72 4.19 9.15 6.52 19.32 5.35 29.4-8.16 3.34-16.03 7.37-24.16 10.8 1.26 0.69 2.68 0.16 4-0.07 7.32-1.64 14.73-2.9 22.05-4.55 6.99 7.51 11.08 17.25 13.21 27.2 1.93-2.88 3.38-6.04 4.48-9.32 0.86 4.3 0.18 8.7-0.34 12.99-1.98 14.21-7.8 27.72-16.19 39.3 0.46-3.42 1.15-6.8 1.53-10.24-7.71 6.32-16.3 11.99-26.24 14.02-6.23-6.6-12.13-13.52-18.53-19.96 3.57 8.33 8.88 15.84 12.98 23.94-5.22 8.81-13.1 15.73-21.95 20.77 3.44 0.62 6.91 1.04 10.36 1.62-17.54 6.23-36.91 5.63-54.6 0.29 3.38-0.97 6.9-1.27 10.34-1.9-8.72-5.15-16.55-11.99-21.81-20.72 3.85-7.32 8.12-14.42 12.12-21.66 0.52-0.73 0.63-1.5 0.33-2.32-5.7 6.92-12.05 13.27-18.03 19.95-7.05-1.61-13.74-4.7-19.59-8.93-2.3-1.58-4.21-3.67-6.64-5.06 0.37 3.45 1.09 6.85 1.58 10.28-11.4-15.23-17.24-34.14-17.35-53.1 1.88 3.28 3.06 6.93 5.25 10.04 2.09-9.97 6.27-19.63 13.17-27.22 8.78 1.66 17.47 3.94 26.34 5.08-7.79-4.22-16.11-7.37-24.06-11.28-0.9-1.36-0.64-3.13-0.75-4.68 0.06-8.51 2.17-16.91 5.75-24.6-3.68 1.18-7.02 3.2-10.22 5.33m32.81 36.45c4.84 14.89 9.76 29.75 14.46 44.68 15.8 0.19 31.61 0.26 47.41-0.03 4.56-14.96 9.61-29.78 14.38-44.68-12.7-9.23-25.39-18.48-38.11-27.68-12.75 9.18-25.45 18.44-38.14 27.71z" fill="#fff"/>
<path d="m523.22 1.33c2.35-0.25 4.99-0.9 7.21 0.21 1.23 2.46 1.31 5.29 1.89 7.94 6.47 34.66 12.85 69.35 19.38 104.01 0.18 1.37 0.55 2.87-0.21 4.16-1.4 1.44-3.61 1.38-5.42 1.88-35.99 6.92-68.33 30.34-86.32 62.24-0.9 2.09-3.41 3.25-5.36 1.75-31.2-18.08-62.36-36.24-93.55-54.35-1.87-1.11-3.88-2.04-5.46-3.54-1.84-2.78 1.22-5.52 2.37-7.94 31.58-53.23 83.91-93.59 143.31-110.89 7.29-2.17 14.7-3.94 22.16-5.47z" fill="#931c80"/>
<path d="m579.62 28.83c63.7-4.49 128.7 16.94 177.34 58.29 2.16 1.75 6.09 4.32 3.67 7.47-24.67 28.7-49.53 57.24-74.28 85.87-1.38 2-4.22 1.51-5.65-0.15-27.92-24.63-66.94-36.12-103.73-30.24-2.08 0.63-4.98-0.03-5.1-2.6-5.53-37.12-10.98-74.27-16.48-111.4-0.49-1.76-0.1-4.14 1.95-4.66 7.35-1.38 14.82-2.02 22.28-2.58z" fill="#e10b17"/>
<path d="m313.17 126.14c1.95-1.16 3.96 0.23 5.73 1.06 32.49 17.49 65.04 34.87 97.52 52.38 3.04 1.12 2.12 4.54 0.72 6.61-17.49 32.42-19.84 72.52-6.21 106.76 1.3 2.11 0.69 5.27-1.99 5.86-34.91 13.45-69.81 26.93-104.74 40.34-1.74 0.84-4.3 0.72-4.97-1.45-24.78-61.68-22.8-133.32 4.65-193.8 2.97-5.96 5.34-12.38 9.29-17.76z" fill="#02509b"/>
<path d="m752.42 132.39c1.39-0.93 3.39-0.43 4.47 0.8 22.73 21.33 41.37 47 54.62 75.22 17.54 37.18 25.74 78.75 23.41 119.8 0.06 2.56-2.77 3.44-4.87 3.05-37.37-1.85-74.75-3.56-112.12-5.48-2.54 0.21-3.45-2.64-3.07-4.69 2.11-37.27-13.23-75.04-40.67-100.33-2.01-1.39-2.25-4.24-0.31-5.8 25.12-26.55 50.3-53.04 75.43-79.58 0.99-1.04 1.94-2.14 3.11-2.99z" fill="#ef8704"/>
<g fill="#1e1e1c">
<path d="m541.11 192.12c15.33-1.46 31.05 0.5 45.31 6.41 19.44 7.89 36.04 22.54 46.35 40.8 9.39 16.48 13.54 35.88 11.76 54.76-1.52 18.03-8.58 35.49-19.78 49.68-11 13.88-25.9 24.68-42.65 30.5-16.68 5.86-35.03 6.88-52.26 2.89-17.88-4.03-34.44-13.59-47.02-26.9-14.02-14.67-23.1-34.02-25.25-54.21-2.48-21.69 2.88-44.23 15.07-62.38 15.14-23.11 40.95-38.86 68.47-41.55m-61.06 44.62c3.2-2.13 6.54-4.15 10.22-5.33-3.58 7.69-5.69 16.09-5.75 24.6 0.11 1.55-0.15 3.32 0.75 4.68 7.95 3.91 16.27 7.06 24.06 11.28-8.87-1.14-17.56-3.42-26.34-5.08-6.9 7.59-11.08 17.25-13.17 27.22-2.19-3.11-3.37-6.76-5.25-10.04 0.11 18.96 5.95 37.87 17.35 53.1-0.49-3.43-1.21-6.83-1.58-10.28 2.43 1.39 4.34 3.48 6.64 5.06 5.85 4.23 12.54 7.32 19.59 8.93 5.98-6.68 12.33-13.03 18.03-19.95 0.3 0.82 0.19 1.59-0.33 2.32-4 7.24-8.27 14.34-12.12 21.66 5.26 8.73 13.09 15.57 21.81 20.72-3.44 0.63-6.96 0.93-10.34 1.9 17.69 5.34 37.06 5.94 54.6-0.29-3.45-0.58-6.92-1-10.36-1.62 8.85-5.04 16.73-11.96 21.95-20.77-4.1-8.1-9.41-15.61-12.98-23.94 6.4 6.44 12.3 13.36 18.53 19.96 9.94-2.03 18.53-7.7 26.24-14.02-0.38 3.44-1.07 6.82-1.53 10.24 8.39-11.58 14.21-25.09 16.19-39.3 0.52-4.29 1.2-8.69 0.34-12.99-1.1 3.28-2.55 6.44-4.48 9.32-2.13-9.95-6.22-19.69-13.21-27.2-7.32 1.65-14.73 2.91-22.05 4.55-1.32 0.23-2.74 0.76-4 0.07 8.13-3.43 16-7.46 24.16-10.8 1.17-10.08-1.16-20.25-5.35-29.4 3.43 1.07 6.39 3.17 9.61 4.72-10.72-15.78-27.22-27.25-45.32-32.98 2.7 2.7 5.78 5.04 8.07 8.12-9.98-1.16-20.48-0.31-29.65 4.03-1.14 7.94-1.89 15.93-2.8 23.91 0.02 0.83-0.3 1.47-0.96 1.94-0.89-8.65-1.95-17.29-2.94-25.93-9.3-4.08-19.69-5.17-29.72-3.97 2.35-3.02 5.32-5.45 8.07-8.08-18.53 5.64-35.01 17.68-45.98 33.64z"/>
<path d="m512.86 273.19c12.69-9.27 25.39-18.53 38.14-27.71 12.72 9.2 25.41 18.45 38.11 27.68-4.77 14.9-9.82 29.72-14.38 44.68-15.8 0.29-31.61 0.22-47.41 0.03-4.7-14.93-9.62-29.79-14.46-44.68z"/>
</g>
<path d="m383.43 324.43c2.78-1.08 4.22 2.12 5.02 4.17 14.46 33.32 43.9 59.68 78.56 70.48 1.38 0.5 2.95 0.79 4.09 1.81 1.28 1.5 0.38 3.49-0.05 5.13-11.11 35.27-21.94 70.62-33.08 105.87-0.36 2.37-2.74 3.65-4.94 2.66-34.57-10.49-66.75-28.77-93.57-52.97-26.69-23.99-48.09-53.85-62.23-86.83-1.27-2.02-0.21-4.68 2.05-5.34 34.73-14.98 69.38-30.14 104.15-44.98z" fill="#198ccd"/>
<path d="m680.31 339.37c1.39-0.91 3.11-0.52 4.67-0.46 36.94 2.95 73.9 5.74 110.85 8.71 2.4-0.17 3.61 2.3 3.16 4.41-2.57 36.3-13.43 71.94-31.29 103.63-17.39 30.96-41.52 58.1-70.19 79.04-1.66 1.57-4.52 1.52-5.7-0.6-22.18-30.15-44.28-60.38-66.42-90.57-1.88-1.88-1.31-4.87 1.06-6.01 29.67-21.36 49.39-55.96 52.37-92.43 0.32-1.91-0.13-4.3 1.49-5.72z" fill="#fdea14"/>
<path d="m587.48 420.47c1.97-1.62 4.66-0.58 5.65 1.59 20.58 30.68 41.2 61.32 61.76 92 1.31 1.72 2.47 4.52 0.13 5.97-59.73 41.38-138.15 53.99-207.93 33.95-2.29-0.41-2.85-3.06-2.08-4.95 9.83-35.74 19.72-71.46 29.55-107.19 0.45-1.44 0.82-3.21 2.43-3.77 2.05-0.33 4.04 0.52 6.01 0.98 35.35 9.34 74.44 2.16 104.48-18.58z" fill="#009541"/>
<g>
<path d="m577.37 607.58c6.41-2.06 14.05-0.64 18.85 4.24 5.24 4.74 6.88 12.66 4.64 19.26-2.45 7.84-10.65 13.36-18.85 12.71-10.05-0.04-18.19-9.93-17.18-19.76 0.4-7.35 5.55-14.13 12.54-16.45z"/>
<path d="m278.38 751.83c0.37-42.05-0.14-84.11 0.25-126.15 10.93 0.13 21.85 0.09 32.78 0.02 0.22 32.51 0.02 65.03 0.1 97.55 13.14-0.03 26.29 0.06 39.43-0.05 0.13 9.6 0.02 19.2 0.06 28.8-24.21-0.11-48.43 0.23-72.62-0.17z"/>
<path d="m482 625.75c10.94 0.11 21.9-0.25 32.84 0.19-0.2 32.43-0.04 64.87-0.08 97.3 13.19-0.05 26.38 0.13 39.57-0.09 0.39 9.6 0.07 19.23 0.17 28.85h-72.5v-126.25z"/>
<path d="m396.49 649.63c9.31-1.62 19.45-0.9 27.72 4.04 3.45 1.99 6.49 4.58 9.55 7.11-0.03-3.34-0.02-6.68 0.01-10.01 10.15-0.03 20.31-0.05 30.47 0.01 0.03 33.74 0.01 67.48 0.01 101.22-10.35-0.03-20.69 0.05-31.04-0.04 0.01-2.98 0.07-5.96 0.06-8.93-5.76 4.35-11.96 8.43-19.09 10.11-14.54 3.52-31.04 0.15-42.21-10.05-9.02-8.19-13.88-20.13-15.23-32.06-1.8-13.46 0.61-27.68 8.05-39.17 7-11.26 18.54-19.86 31.7-22.23m6.94 28.89c-8.33 2.42-14.52 10.13-15.74 18.63-1.65 10.25 2.51 22.16 12.1 27.12 9.43 4.93 21.93 2.28 28.93-5.62 9.09-9.95 7.87-27.36-2.52-35.95-6.22-5.2-15.12-6.5-22.77-4.18z"/>
<path d="m629.57 657.62c10.71-8.73 25.87-10.82 38.91-6.85 6.55 2 11.99 6.38 16.75 11.16 0.03-3.7 0.03-7.4-0.03-11.09 9.73-0.25 19.46 0.03 29.2-0.14 0.24 24.77 0.03 49.55 0.1 74.32-0.17 11.31 1.11 23.13-3.39 33.84-4.81 12.76-16.33 22.14-29.25 25.9-15.6 4.56-33.12 3.6-47.69-3.86-11.09-5.56-19.56-16.44-21-28.91 11.48 0.05 22.96-0.06 34.43 0.06 2.18 3.69 5.5 6.91 9.85 7.71 6.28 1.1 13.08 0.58 18.76-2.49 4.11-2.17 7.21-6.41 7.49-11.12 0.14-2.98 0-5.96 0.07-8.94-7.51 6.29-16.82 10.8-26.69 11.45-10.9 0.61-22.11-3.08-30.15-10.56-10.87-9.76-15.86-24.71-15.71-39.06 0.02-15.49 6-31.59 18.35-41.42m27.94 18.11c-5.57 1.09-10.42 4.86-13.07 9.84-6.21 11.32-4.13 28.48 8 35 8.79 4.37 20.45 2.24 26.87-5.28 7.53-8.36 7.8-21.81 1.71-31.04-4.96-7.55-14.99-10.25-23.51-8.52z"/>
<path d="m750.62 656.58c9.98-6.81 22.7-9.16 34.5-6.87 7.62 1.58 14.3 6.03 19.84 11.36 0.03-3.45 0.06-6.89 0.04-10.32 10.07 0 20.15-0.02 30.23 0.01 0.04 33.75 0.01 67.49 0.02 101.24h-30.74c-0.03-3.23-0.07-6.46 0.09-9.68-17.02 17.12-47.94 15.85-64.12-1.79-10.2-11.13-13.75-26.87-13.12-41.61 0.81-16.64 9.25-33.07 23.26-42.34m23.75 22c-6.84 2.09-12.37 7.66-14.53 14.45-3.84 11.38 0.4 25.98 11.57 31.53 10.08 4.88 23.23 1.36 29.82-7.6 7.42-10 5.99-25.56-3.44-33.79-6.2-5.69-15.54-7.05-23.42-4.59z"/>
<path d="m567.76 650.78c10.2-0.11 20.41 0.06 30.62-0.09 0.35 33.72-0.09 67.45 0.22 101.17-10.28 0.32-20.57 0.05-30.85 0.14 0-33.74-0.01-67.48 0.01-101.22z"/>
</g>
<g fill="#e30b18">
<path d="m102.39 802.62c-7.74-14.05-7.34-32.72 2.15-45.82 1.59 8.72 6.78 16.05 11.03 23.63 8.86 15.45 17.88 30.8 26.65 46.3 3.42 5.84 4.69 12.55 5.52 19.18 16.02 4.16 31.91 10.91 44.16 22.31 8.21 7.51 14.35 18.26 13.49 29.69-0.64 10.37-6.72 19.54-14.23 26.36-10.56 9.52-23.73 15.65-37.19 19.87-13.6 4.29-27.81 6.25-41.99 7.33-5.31-0.58-10.65-0.57-15.96-0.02-21.29-1.05-42.79-5.05-62.05-14.5-10.45-5.23-20.4-12.18-27.12-21.91-5.2-7.68-7.78-17.51-5.28-26.63 3.27-12.88 13.63-22.5 24.56-29.27 10.11-6.02 21.13-10.61 32.6-13.25-0.08 8.41 1.84 16.92 6.14 24.2 10.78 18.61 21.52 37.23 32.26 55.87 2.27 3.78 3.48 8.03 4.77 12.22 8.85-13.59 9.28-32.09 0.96-46.03-7.35-12.65-14.63-25.34-21.96-38-2.55-4.51-5.45-8.88-7.08-13.84-4.48-13-2.66-27.96 4.94-39.44 1.17 4.55 2.59 9.1 5 13.17 12.81 22.24 25.66 44.45 38.49 66.68 2.33 4.05 4.17 8.42 4.99 13.04 9.11-12.88 9.49-31.05 1.88-44.75-8.84-15.5-17.86-30.91-26.73-46.39z"/>
<path d="m258.72 816.75c9.72-6.51 21.81-8.1 33.26-8.02 11.7-0.12 23.36 1.83 34.5 5.36-0.24 6.72-1.42 13.51-3.93 19.76-8.41-3.33-17.45-4.82-26.43-5.51-7.9-0.35-16.55-0.34-23.31 4.36-6.6 4.49-7.67 14.47-3.34 20.87 3.66 5.51 9.82 8.56 15.61 11.35 12.76 5.74 26.57 10.22 37.04 19.9 14.88 13.4 14.26 40.28-1.61 52.67-9.39 7.49-21.68 9.97-33.43 10.46-13.59 0.35-27.48-0.87-40.23-5.88-0.99-0.63-2.7-0.68-3.03-1.96 0.17-6.49 1.47-12.92 3.58-19.05 12.42 5.29 26.03 8.02 39.54 7.35 6.51-0.42 13.44-1.6 18.63-5.85 6.54-5.59 6.26-16.58 0.5-22.61-4.72-5.03-11.16-7.9-17.29-10.8-12.19-5.57-25.71-9.77-35.04-19.92-8.28-8.79-10.26-21.86-7.92-33.37 1.59-7.73 6.28-14.78 12.9-19.11z"/>
<path d="m564.89 813.17c6.9-1.91 14.02-2.83 21.17-3.06 0.63 12.16-0.31 24.39 0.47 36.53 11.05-0.35 22.1-0.02 33.15-0.18-0.37 6.12-0.87 12.24-1.93 18.28-10.53 0.15-21.06-0.24-31.57 0.2 0.21 16.25-0.06 32.51 0.13 48.76 0.12 5.59 2.66 11.83 8.29 13.86 7.95 2.83 16.66 0.89 24.47-1.5-0.45 6.02-1.41 11.99-2.35 17.95-8.44 3.56-17.95 3.81-26.91 2.59-7.97-1.14-15.95-5.11-20.16-12.22-4.77-7.54-4.86-16.77-4.91-25.39 0.12-31.94-0.19-63.89 0.15-95.82z"/>
<path d="m909.99 813.08c6.78-2.27 13.99-2.78 21.1-2.93 0.37 44.94 0.07 89.9 0.15 134.85-6.62-0.1-13.24 0.2-19.84-0.17-0.19-3.93-0.73-7.83-0.87-11.76-4.08 6.18-10.05 11.38-17.41 13.01-12.45 2.84-26.57 0.62-36.49-7.78-9.79-8.15-14.36-20.93-15.56-33.29-0.92-11.46-0.39-23.36 4.02-34.12 4.01-10.11 12.13-18.46 22.17-22.68 13.45-5.64 28.54-5.93 42.76-3.54-0.05-10.53 0-21.06-0.03-31.59m-32.18 51.74c-8.46 4-13.36 13.03-14.63 22.02-1.35 9.65-1.14 19.96 2.88 29 2.68 6.02 7.93 10.95 14.36 12.67 9.91 2.92 21.01 0.42 29.15-5.8 1.01-4.42 0.14-9.22 0.43-13.79-0.1-15.18 0.19-30.37-0.15-45.54-10.54-1.81-22.06-3.5-32.04 1.44z"/>
<path d="m358.2 858.18c8.8-9.7 22.07-13.88 34.82-14.7 14.34-0.82 28.92 0.53 42.63 4.99 0.28 32.15-0.03 64.31 0.15 96.47-6.54 0.08-13.08 0.13-19.62-0.03-0.33-3.6-0.65-7.2-1.07-10.77-3.91 5.13-8.92 9.64-15.26 11.45-14.6 4.23-32 0.53-42.15-11.21-9.12-10.49-12.03-24.89-11.97-38.44 0.01-13.4 3.11-27.67 12.47-37.76m24.83 6.91c-6.83 3.24-11.59 9.85-13.61 17.02-2.56 9.02-2.51 18.73-0.35 27.82 1.81 7.35 6.33 14.45 13.5 17.52 9.83 4.14 21.68 2.42 30.4-3.56 1.18-0.58 1.69-1.54 1.53-2.85 0-19.42-0.01-38.84 0-58.26-10.4-1.54-21.75-2.52-31.47 2.31z"/>
<path d="m473.9 845.55c14.24-2.45 28.97-3.44 43.19-0.4 7.42 1.65 14.84 4.91 19.77 10.9 5.37 6.31 7.01 14.87 7.14 22.93v66.02c-7.2-0.09-14.41 0.17-21.6-0.14 0.23-20.63 0.01-41.26 0.12-61.89 0.08-5.07-0.66-10.48-3.86-14.58-2.47-3.14-6.3-4.79-10.1-5.65-9.41-2.08-19.13-1.06-28.56 0.34v81.92c-7.08-0.01-14.16 0.01-21.24-0.01 0.02-32-0.1-64.01 0.06-96.01 4.67-1.99 10.07-2.35 15.08-3.43z"/>
<path d="m637.31 859.16c9.46-11.16 24.55-15.42 38.7-15.85 13.49-0.25 27.32 0.74 40.06 5.52-0.17 32.06-0.02 64.11-0.07 96.17-6.6-0.04-13.2 0.09-19.8-0.08-0.33-3.62-0.67-7.23-1-10.83-3.98 5.11-8.97 9.7-15.36 11.51-13.52 3.86-29.39 1.09-39.75-8.75-8.69-8.22-12.77-20.15-13.91-31.81-1.49-15.82 0.46-33.35 11.13-45.88m25.11 6.24c-7.48 3.82-12.17 11.63-13.78 19.7-1.92 9.94-1.64 20.6 2.24 30.05 2.74 6.84 8.87 12.26 16.13 13.77 9.46 2.21 19.64-0.29 27.43-5.96 0.13-20.07 0.02-40.13 0.05-60.19-10.61-1.56-22.24-2.55-32.07 2.63z"/>
<path d="m738.67 848.78c17.72-4.39 36.28-7.17 54.49-4.38 8.54 1.37 17.41 4.38 23.24 11.11 5.7 6.36 7.49 15.19 7.6 23.5-0.01 22 0 43.99 0 65.99h-21.23c-0.05-19.34 0.01-38.67-0.03-58.01-0.27-5.92 0.07-12.31-3.26-17.5-3.12-4.83-9.01-6.72-14.43-7.39-8.34-1.18-16.78-0.24-25.05 0.98v81.92c-7.08-0.01-14.16 0-21.24 0-0.08-32.08 0.1-64.15-0.09-96.22z"/>
<path d="m980.79 844.87c10.32-2.37 21.33-2.3 31.47 0.93 9.71 3.13 18 10.44 22.01 19.86 5.41 11.9 4.66 25.38 3.2 38.04-22.51 0.17-45.03-0.07-67.54 0.12 1.25 6.96 3.88 14.11 9.54 18.7 6.82 5.57 16.12 6.69 24.63 6.38 10.73-0.38 21.27-3.03 31.12-7.23-0.66 5.77-1.72 11.49-2.76 17.2-0.26 1.05-0.3 2.43-1.6 2.73-9.66 4.24-20.33 5.7-30.82 5.67-9.44-0.16-19.09-1.51-27.61-5.79-7.53-3.63-13.88-9.68-17.76-17.09-5.14-9.57-6.66-20.65-6.45-31.37 0.17-11.37 2.49-23.14 9.11-32.6 5.41-8 14.13-13.37 23.46-15.55m-3.57 22.34c-4.93 4.94-6.9 12.02-7.61 18.79 15.82 0 31.64 0.01 47.46-0.01-0.31-4.76-0.87-9.66-3.15-13.93-2.79-5.57-8.45-9.36-14.53-10.37-7.65-1.29-16.44-0.15-22.17 5.52z"/>
<path d="m1056.5 848.59c17.63-5.35 36.33-6.27 54.59-4.6 0.86 6.13-0.43 12.42-1.8 18.4-10.34-1.2-20.79-1.09-31.1 0.21-0.44 27.45-0.06 54.93-0.19 82.4-7.21-0.08-14.41 0.16-21.6-0.14 0.23-32.08 0.02-64.18 0.1-96.27z"/>
</g>
</svg>
